<?xml version="1.0" encoding="UTF-8"?>
<svg id="Camada_1" data-name="Camada 1" xmlns="http://www.w3.org/2000/svg" viewBox="0 0 530.83 334.64">
  <defs>
    <style>
      .cls-1 {
        font-family: GeorginaDemo-Regular, 'Georgina Demo';
        font-size: 97.45px;
      }

      .cls-1, .cls-2 {
        fill: #fff;
      }
    </style>
  </defs>
  <text class="cls-1" transform="translate(15.39 197.26) rotate(-.1)"><tspan x="0" y="0">PREDIBRA</tspan></text>
  <g>
    <g>
      <path class="cls-2" d="M157.18,113.59h35.97c7.16-3.9,17.75-11.92,18.21-25.47h.1l-.03-64.3h-11.41l-3.51,62.16h-15.23l-1.3-63.43h-10.56l-1.63,63.43h-12.99l-5.37-62.16h-11v64.3l.09.02c.57,16.82,7.95,21.2,18.65,25.44Z"/>
      <path class="cls-2" d="M164.39,209.6v95.69c12.56,11.77,22.27,0,22.27,0l.03-95.7h-22.3Z"/>
    </g>
    <g>
      <path class="cls-2" d="M283.52,113.59c1.26-52.42-24.29-91.04-24.29-91.04h-24.95v91.04h49.24Z"/>
      <path class="cls-2" d="M238.16,209.6v95.69c12.56,11.77,22.27,0,22.27,0l.03-95.7h-22.3Z"/>
    </g>
    <g>
      <path class="cls-2" d="M317.08,113.59h31.72c9.09-8.37,15.2-23.65,15.2-41.19,0-26.54-13.9-48.04-31.04-48.04s-31.06,21.5-31.06,48.04c0,17.55,6.1,32.83,15.18,41.19Z"/>
      <path class="cls-2" d="M321.79,209.6v93.83c12.56,11.77,22.27,0,22.27,0l.03-93.84h-22.3Z"/>
    </g>
  </g>
</svg>